<svg id="svg" version="1.1" xmlns="http://www.w3.org/2000/svg" xmlns:xlink="http://www.w3.org/1999/xlink" width="400" height="400" viewBox="0, 0, 400,400"><g id="svgg"><path id="path0" d="M0.000 200.000 L 0.000 400.000 200.000 400.000 L 400.000 400.000 400.000 200.000 L 400.000 0.000 200.000 0.000 L 0.000 0.000 0.000 200.000 M205.306 11.527 C 230.438 13.633,271.445 31.766,296.583 51.888 C 341.721 88.020,362.318 140.937,353.673 198.561 C 350.098 222.393,341.117 247.439,328.200 269.604 C 305.243 308.996,263.488 334.530,207.443 343.448 L 204.364 343.938 204.251 345.126 C 204.190 345.779,204.138 347.851,204.136 349.730 C 204.123 364.414,202.616 373.441,199.361 378.346 C 194.686 385.389,179.031 389.365,174.657 384.620 C 171.105 380.766,174.226 371.240,180.935 365.457 C 187.892 359.462,189.155 357.168,190.466 348.147 C 190.665 346.781,190.827 345.456,190.827 345.201 L 190.827 344.739 184.577 344.871 C 174.776 345.078,169.203 343.875,156.655 338.845 C 62.597 301.141,22.339 217.858,56.358 131.359 C 76.202 80.906,123.969 47.022,178.817 44.492 L 181.465 44.370 181.645 43.813 C 182.063 42.519,182.385 39.562,182.556 35.432 C 183.101 22.276,183.684 19.132,186.243 15.546 C 188.906 11.813,194.544 10.625,205.306 11.527 M202.338 29.092 C 197.260 30.467,195.682 36.785,198.544 44.290 L 198.732 44.784 200.589 44.784 C 231.518 44.784,264.897 63.860,288.613 95.088 C 319.001 135.102,324.097 171.304,305.957 218.307 C 286.564 268.555,251.190 297.261,205.171 300.095 L 203.237 300.214 203.237 310.462 L 203.237 320.709 203.822 321.790 L 204.406 322.871 205.755 322.760 C 237.469 320.142,277.619 297.743,302.327 268.884 C 330.897 235.513,342.558 187.612,332.720 144.032 C 321.123 92.656,283.716 51.601,233.273 34.886 C 219.261 30.243,206.746 27.899,202.338 29.092 M178.957 62.069 C 128.623 65.367,93.297 91.620,73.628 140.346 C 50.670 197.219,66.611 256.202,115.558 295.487 C 133.992 310.283,157.855 321.317,176.869 323.837 C 178.872 324.102,180.053 324.126,185.547 324.012 L 191.906 323.879 191.906 312.058 L 191.906 300.236 187.815 300.125 C 154.651 299.220,121.770 281.911,98.827 253.283 C 84.053 234.846,77.970 210.789,79.672 177.518 C 80.826 154.962,86.781 137.944,99.355 121.266 C 117.322 97.435,141.931 83.436,171.043 80.487 C 174.384 80.149,182.870 79.786,184.218 79.924 L 185.252 80.030 185.249 79.359 C 185.248 78.989,185.046 75.004,184.802 70.504 C 184.558 66.003,184.357 62.219,184.355 62.095 C 184.352 61.838,182.624 61.829,178.957 62.069 M197.482 71.827 C 197.482 77.331,197.513 81.835,197.551 81.835 C 198.091 81.835,203.625 82.673,205.353 83.016 C 241.718 90.245,270.451 118.642,275.349 152.192 C 278.841 176.109,276.418 198.838,268.529 216.187 C 257.808 239.762,223.118 266.007,202.679 266.007 C 202.349 266.007,202.338 266.296,202.338 275.066 L 202.338 284.125 204.811 283.696 C 222.706 280.588,242.182 270.861,257.788 257.240 C 289.595 229.476,306.612 180.602,297.292 143.783 C 286.788 102.286,241.702 64.554,199.505 61.944 L 197.482 61.819 197.482 71.827 M183.813 98.040 C 151.667 100.281,126.097 115.076,111.109 140.108 C 91.428 172.978,92.571 207.392,114.434 240.198 C 131.185 265.334,158.110 281.087,190.962 284.973 L 191.906 285.084 191.906 275.560 L 191.906 266.036 191.412 265.936 C 191.140 265.881,189.825 265.665,188.489 265.456 C 162.249 261.354,141.936 250.212,130.295 233.537 C 120.104 218.939,113.588 194.877,115.714 179.696 C 120.180 147.804,150.963 119.098,183.723 116.278 C 184.415 116.218,185.286 116.126,185.658 116.072 L 186.334 115.975 186.288 106.968 C 186.257 101.143,186.177 97.950,186.061 97.929 C 185.962 97.911,184.951 97.961,183.813 98.040 M198.561 107.466 L 198.561 117.014 200.854 117.433 C 215.328 120.078,224.576 124.256,231.215 131.148 C 244.792 145.244,250.029 169.542,243.235 186.915 C 237.432 201.756,224.088 217.007,211.207 223.522 C 207.774 225.259,202.886 226.968,201.316 226.981 C 200.457 226.988,200.469 226.710,200.913 236.220 C 201.232 243.058,201.383 245.144,201.556 245.144 C 202.172 245.144,207.225 243.987,209.446 243.338 C 249.865 231.520,272.951 185.532,258.976 144.674 C 249.566 117.164,228.461 100.395,200.315 98.063 L 198.561 97.918 198.561 107.466 M183.993 131.307 C 169.877 132.813,152.245 145.086,141.703 160.743 C 126.506 183.314,127.618 203.393,145.135 222.734 C 156.808 235.622,176.795 246.033,189.883 246.042 L 191.007 246.043 191.007 236.548 L 191.007 227.053 188.894 226.544 C 160.875 219.795,149.968 205.336,154.971 181.577 C 158.562 164.526,166.981 156.611,183.867 154.413 C 185.035 154.261,186.370 154.135,186.835 154.134 C 188.259 154.129,188.189 155.042,187.684 143.062 C 187.435 137.134,187.230 132.021,187.230 131.700 L 187.230 131.115 186.286 131.139 C 185.767 131.152,184.735 131.228,183.993 131.307 M198.600 142.285 C 198.662 154.618,198.386 153.687,202.825 156.539 C 206.437 158.859,207.111 159.972,207.090 163.579 C 207.062 168.521,204.743 171.442,200.496 171.885 L 199.460 171.994 199.460 188.182 L 199.460 204.370 201.070 204.256 C 219.389 202.956,231.705 181.642,227.151 159.122 C 224.528 146.151,211.495 133.365,199.769 132.257 L 198.550 132.142 198.600 142.285 M187.410 173.149 C 172.715 175.727,165.209 188.726,173.412 197.392 C 176.506 200.661,184.357 204.485,187.992 204.494 C 190.687 204.501,191.066 200.247,189.641 185.971 C 189.385 183.408,189.138 179.540,189.080 177.203 L 188.978 173.022 188.419 173.046 C 188.111 173.060,187.657 173.106,187.410 173.149 " stroke="none" fill="#fcfcfc" fill-rule="evenodd"></path><path id="path1" d="M196.853 11.348 C 185.434 11.893,183.388 15.340,182.556 35.432 C 182.385 39.562,182.063 42.519,181.645 43.813 L 181.465 44.370 178.817 44.492 C 126.412 46.909,79.153 78.835,58.714 125.629 C 46.369 153.892,41.825 184.247,45.784 212.002 C 53.702 267.504,94.163 313.795,156.655 338.845 C 169.203 343.875,174.776 345.078,184.577 344.871 L 190.827 344.739 190.827 345.201 C 190.827 345.456,190.665 346.781,190.466 348.147 C 189.155 357.168,187.892 359.462,180.935 365.457 C 174.226 371.240,171.105 380.766,174.657 384.620 C 179.031 389.365,194.686 385.389,199.361 378.346 C 202.616 373.441,204.123 364.414,204.136 349.730 C 204.138 347.851,204.190 345.779,204.251 345.126 L 204.364 343.938 207.443 343.448 C 263.488 334.530,305.243 308.996,328.200 269.604 C 355.116 223.418,362.574 171.680,348.759 126.978 C 337.687 91.152,312.145 59.363,278.058 38.988 C 248.453 21.292,216.486 10.411,196.853 11.348 M212.320 29.393 C 284.681 43.184,335.996 103.720,336.054 175.360 C 336.083 210.127,324.038 243.524,302.327 268.884 C 277.619 297.743,237.469 320.142,205.755 322.760 L 204.406 322.871 203.822 321.790 L 203.237 320.709 203.237 310.462 L 203.237 300.214 205.171 300.095 C 251.190 297.261,286.564 268.555,305.957 218.307 C 324.097 171.304,319.001 135.102,288.613 95.088 C 264.897 63.860,231.518 44.784,200.589 44.784 L 198.732 44.784 198.544 44.290 C 198.131 43.208,197.480 40.131,197.290 38.364 C 196.407 30.160,201.233 27.280,212.320 29.393 M184.355 62.095 C 184.357 62.219,184.558 66.003,184.802 70.504 C 185.046 75.004,185.248 78.989,185.249 79.359 L 185.252 80.030 184.218 79.924 C 182.870 79.786,174.384 80.149,171.043 80.487 C 141.931 83.436,117.322 97.435,99.355 121.266 C 86.781 137.944,80.826 154.962,79.672 177.518 C 77.970 210.789,84.053 234.846,98.827 253.283 C 121.770 281.911,154.651 299.220,187.815 300.125 L 191.906 300.236 191.906 312.058 L 191.906 323.879 185.547 324.012 C 180.053 324.126,178.872 324.102,176.869 323.837 C 157.855 321.317,133.992 310.283,115.558 295.487 C 66.611 256.202,50.670 197.219,73.628 140.346 C 92.634 93.262,126.112 67.255,173.831 62.503 C 179.896 61.899,184.351 61.727,184.355 62.095 M204.227 62.413 C 247.873 67.974,290.993 107.646,298.447 149.101 C 304.989 185.483,287.888 230.966,257.788 257.240 C 242.182 270.861,222.706 280.588,204.811 283.696 L 202.338 284.125 202.338 275.066 C 202.338 266.296,202.349 266.007,202.679 266.007 C 223.118 266.007,257.808 239.762,268.529 216.187 C 276.418 198.838,278.841 176.109,275.349 152.192 C 270.451 118.642,241.718 90.245,205.353 83.016 C 203.625 82.673,198.091 81.835,197.551 81.835 C 197.513 81.835,197.482 77.331,197.482 71.827 L 197.482 61.819 199.505 61.944 C 200.618 62.013,202.743 62.224,204.227 62.413 M186.288 106.968 L 186.334 115.975 185.658 116.072 C 185.286 116.126,184.415 116.218,183.723 116.278 C 150.963 119.098,120.180 147.804,115.714 179.696 C 113.588 194.877,120.104 218.939,130.295 233.537 C 141.936 250.212,162.249 261.354,188.489 265.456 C 189.825 265.665,191.140 265.881,191.412 265.936 L 191.906 266.036 191.906 275.560 L 191.906 285.084 190.962 284.973 C 158.110 281.087,131.185 265.334,114.434 240.198 C 92.571 207.392,91.428 172.978,111.109 140.108 C 126.097 115.076,151.667 100.281,183.813 98.040 C 184.951 97.961,185.962 97.911,186.061 97.929 C 186.177 97.950,186.257 101.143,186.288 106.968 M204.676 98.580 C 230.879 102.307,250.051 118.583,258.976 144.674 C 272.951 185.532,249.865 231.520,209.446 243.338 C 207.225 243.987,202.172 245.144,201.556 245.144 C 201.383 245.144,201.232 243.058,200.913 236.220 C 200.469 226.710,200.457 226.988,201.316 226.981 C 202.886 226.968,207.774 225.259,211.207 223.522 C 224.088 217.007,237.432 201.756,243.235 186.915 C 250.029 169.542,244.792 145.244,231.215 131.148 C 224.576 124.256,215.328 120.078,200.854 117.433 L 198.561 117.014 198.561 107.466 L 198.561 97.918 200.315 98.063 C 201.279 98.143,203.242 98.375,204.676 98.580 M187.230 131.700 C 187.230 132.021,187.435 137.134,187.684 143.062 C 188.189 155.042,188.259 154.129,186.835 154.134 C 186.370 154.135,185.035 154.261,183.867 154.413 C 166.981 156.611,158.562 164.526,154.971 181.577 C 149.968 205.336,160.875 219.795,188.894 226.544 L 191.007 227.053 191.007 236.548 L 191.007 246.043 189.883 246.042 C 176.795 246.033,156.808 235.622,145.135 222.734 C 127.618 203.393,126.506 183.314,141.703 160.743 C 152.893 144.124,171.898 131.504,186.286 131.139 L 187.230 131.115 187.230 131.700 M202.688 132.829 C 214.214 135.927,224.750 147.251,227.151 159.122 C 231.705 181.642,219.389 202.956,201.070 204.256 L 199.460 204.370 199.460 188.182 L 199.460 171.994 200.496 171.885 C 204.743 171.442,207.062 168.521,207.090 163.579 C 207.111 159.972,206.437 158.859,202.825 156.539 C 198.386 153.687,198.662 154.618,198.600 142.285 L 198.550 132.142 199.769 132.257 C 200.440 132.320,201.754 132.577,202.688 132.829 M189.080 177.203 C 189.138 179.540,189.385 183.408,189.641 185.971 C 191.066 200.247,190.687 204.501,187.992 204.494 C 185.730 204.489,179.186 201.894,176.164 199.805 C 167.034 193.493,168.256 182.497,178.783 176.243 C 181.303 174.746,186.123 173.147,188.419 173.046 L 188.978 173.022 189.080 177.203 " stroke="none" fill="#f4e4e4" fill-rule="evenodd"></path></g></svg>